<?xml version="1.0" encoding="UTF-8"?>
<svg id="Layer_3" xmlns="http://www.w3.org/2000/svg" version="1.1" viewBox="0 0 24 24">
  <!-- Generator: Adobe Illustrator 29.6.1, SVG Export Plug-In . SVG Version: 2.1.1 Build 9)  -->
  <defs>
    <style>
      .st0 {
        fill: none;
        stroke: #000;
        stroke-linecap: round;
        stroke-linejoin: round;
        stroke-width: .75px;
      }
    </style>
  </defs>
  <path class="st0" d="M2.34,19.16V5.12c0-1.23,0-1.84.24-2.31.21-.41.55-.75.96-.96.47-.24,1.08-.24,2.31-.24h10.53c1.23,0,1.84,0,2.31.24.41.21.75.55.96.96.24.47.24,1.08.24,2.31v11.85H4.53c-1.21,0-2.19.98-2.19,2.19ZM2.34,19.16c0,1.21.98,2.19,2.19,2.19h15.36M18.79,16.97v4.39"/>
  <polyline class="st0" points="6.76 9.13 10.37 13.69 16.06 6.81"/>
</svg>