<?xml version="1.0" encoding="UTF-8"?>
<svg id="Layer_1" xmlns="http://www.w3.org/2000/svg" version="1.1" viewBox="0 0 24 24">
  <!-- Generator: Adobe Illustrator 29.6.1, SVG Export Plug-In . SVG Version: 2.1.1 Build 9)  -->
  <defs>
    <style>
      .st0 {
        fill: none;
        stroke: #000;
        stroke-linecap: round;
        stroke-linejoin: round;
      }
    </style>
  </defs>
  <path class="st0" d="M11.78,1.97c.52,0,1.04.04,1.54.11l.75,2.29c.66.19,1.29.46,1.87.8l2.17-1.05c.77.59,1.45,1.28,2.03,2.06l-1.08,2.15c.33.59.59,1.22.76,1.89l2.27.79c.13.96.12,1.93-.03,2.89l-2.29.75c-.19.65-.45,1.28-.8,1.87l1.05,2.17c-.59.77-1.28,1.45-2.06,2.03l-2.15-1.08c-.59.33-1.23.59-1.89.76l-.79,2.27c-.96.13-1.93.12-2.89-.03l-.75-2.29c-.65-.19-1.28-.45-1.87-.8l-2.17,1.05c-.77-.59-1.45-1.28-2.03-2.06l1.08-2.15c-.33-.59-.59-1.23-.76-1.89l-2.27-.79c-.13-.96-.12-1.93.03-2.89l2.29-.75c.19-.66.46-1.29.8-1.87l-1.05-2.17c.59-.77,1.28-1.45,2.06-2.03l2.15,1.08c.59-.33,1.23-.59,1.89-.76l.79-2.27c.45-.06.9-.09,1.36-.09h-.01Z"/>
  <circle class="st0" cx="11.78" cy="12.36" r="4.46"/>
</svg>