<?xml version="1.0" encoding="UTF-8"?>
<svg id="Layer_1" xmlns="http://www.w3.org/2000/svg" version="1.1" viewBox="0 0 1200 1200">
  <!-- Generator: Adobe Illustrator 29.5.1, SVG Export Plug-In . SVG Version: 2.1.0 Build 141)  -->
  <defs>
    <style>
      .st0 {
        fill: #fff;
      }
    </style>
  </defs>
  <path id="text2403" class="st0" d="M1159.12,1114.61c-34.39-.51-60.69-9.61-78.89-27.31-18.21-17.7-40.46-55.53-66.75-113.48L610.52,54.64h-32.37L241.55,849.22c-47.4,114.93-83.68,188.5-108.83,220.69-25.15,32.2-55.76,47.1-91.84,44.7v30.75h320.42v-30.75c-38.57.07-66.62-5.33-84.15-16.18-17.53-10.86-26.16-27.58-25.89-50.17.03-9.81,1.18-20.13,3.44-30.95,2.26-10.82,5.43-21.54,9.51-32.16l74.44-189.34h423.99l66.35,155.35c9.78,22.22,17.33,42.92,22.66,62.1,5.33,19.18,8.02,34.62,8.09,46.32.64,19.89-7.52,33.92-24.48,42.08-16.96,8.16-46.56,12.47-88.8,12.95v30.75h412.66v-30.75ZM366.16,729.46l186.1-445.03,187.72,445.03h-373.82Z"/>
</svg>