<?xml version="1.0" encoding="UTF-8"?>
<svg id="Layer_1" xmlns="http://www.w3.org/2000/svg" version="1.1" viewBox="0 0 24 24">
  <!-- Generator: Adobe Illustrator 29.6.1, SVG Export Plug-In . SVG Version: 2.1.1 Build 9)  -->
  <defs>
    <style>
      .st0 {
        fill: none;
        stroke: #000;
        stroke-linecap: round;
        stroke-linejoin: round;
        stroke-width: .75px;
      }
    </style>
  </defs>
  <path class="st0" d="M3.22,19.68V5.64c0-1.23,0-1.84.24-2.31.21-.41.55-.75.96-.96.47-.24,1.08-.24,2.31-.24h10.53c1.23,0,1.84,0,2.31.24.41.21.75.55.96.96.24.47.24,1.08.24,2.31v11.85H5.42c-1.21,0-2.19.98-2.19,2.19ZM3.22,19.68c0,1.21.98,2.19,2.19,2.19h15.36M8.71,5.51h6.58M8.71,9.9h6.58M19.68,17.49v4.39"/>
  <line class="st0" x1="9" y1="14.04" x2="15.58" y2="14.04"/>
</svg>