<?xml version="1.0" encoding="UTF-8" standalone="no"?>
<!DOCTYPE svg PUBLIC "-//W3C//DTD SVG 1.0//EN" "http://www.w3.org/TR/2001/REC-SVG-20010904/DTD/svg10.dtd">
<!-- Created with Inkscape (http://www.inkscape.org/) -->
<svg
   xmlns:svg="http://www.w3.org/2000/svg"
   xmlns="http://www.w3.org/2000/svg"
   version="1.0"
   width="150"
   height="200"
   id="svg2">
  <defs
     id="defs4" />
  <path
     d="M 78.760861,77.103778 C 76.635819,77.072529 75.010842,76.510037 73.885924,75.416299 C 72.760874,74.322568 71.385893,71.985101 69.760977,68.40389 L 44.861297,11.604621 L 42.861323,11.604621 L 22.061591,60.703989 C 19.132449,67.805991 16.890812,72.351761 15.336675,74.341313 C 13.782522,76.330874 11.890883,77.251695 9.6617506,77.103778 L 9.6617506,79.003754 L 29.461496,79.003754 L 29.461496,77.103778 C 27.078175,77.107948 25.344866,76.77462 24.261563,76.103791 C 23.178227,75.432968 22.644901,74.399649 22.661583,73.003831 C 22.663653,72.397595 22.734485,71.760103 22.874081,71.091353 C 23.013648,70.42262 23.209478,69.76013 23.461573,69.103881 L 28.061514,57.404032 L 54.261176,57.404032 L 58.361124,67.003908 C 58.965231,68.376816 59.431892,69.655965 59.761106,70.841358 C 60.090216,72.026767 60.256881,72.980921 60.261099,73.703822 C 60.300628,74.932975 59.796468,75.79963 58.748616,76.303788 C 57.700663,76.807953 55.871523,77.074616 53.261189,77.103778 L 53.261189,79.003754 L 78.760861,79.003754 L 78.760861,77.103778 z M 29.761492,53.304085 L 41.261344,25.804439 L 52.861194,53.304085 L 29.761492,53.304085 z M 136.22668,68.303891 L 134.3267,68.303891 C 134.31831,69.449719 133.98499,70.458038 133.32671,71.328851 C 132.66834,72.19968 131.73502,72.658007 130.52675,72.703835 C 128.99547,72.499677 127.58299,71.358026 126.2893,69.278877 C 124.99552,67.199748 124.30803,65.408107 124.22683,63.903948 C 124.28512,63.278971 124.56845,62.253985 125.07682,60.828986 C 125.5851,59.404024 125.96843,58.329039 126.22681,57.604029 C 127.42674,53.747852 128.50173,49.835406 129.45176,45.866678 C 130.4017,41.898016 131.22669,37.910572 131.92673,33.904334 L 123.52684,33.904334 L 120.32688,49.904128 L 120.12688,49.904128 C 119.57477,45.608383 118.12895,41.750103 115.78944,38.329276 C 113.44985,34.90853 109.92907,33.100222 105.22708,32.904347 C 98.76464,33.16689 93.71471,35.691855 90.077269,40.479251 C 86.439809,45.266724 84.589835,50.741648 84.527342,56.904038 C 84.560671,62.897727 86.26898,68.185152 89.652276,72.766332 C 93.035553,77.347524 97.893819,79.759991 104.22709,80.003741 C 108.25409,79.926657 111.87487,78.705841 115.08945,76.341287 C 118.30395,73.976739 120.64975,70.930948 122.12686,67.203906 L 122.32686,67.203906 C 122.66847,69.793466 123.36013,72.514262 124.40183,75.366301 C 125.44344,78.218348 127.48508,79.764159 130.52675,80.003741 C 133.08291,79.753742 134.69539,78.278762 135.36419,75.578796 C 136.03287,72.878837 136.32037,70.453871 136.22668,68.303891 L 136.22668,68.303891 z M 118.22691,55.704054 C 118.25588,58.36083 117.90898,61.336097 117.18618,64.629863 C 116.46331,67.923657 115.19049,70.795222 113.36771,73.244567 C 111.54486,75.693922 108.99799,76.980325 105.72707,77.103778 C 101.11461,76.793367 97.93965,74.614231 96.202189,70.566362 C 94.464696,66.518509 93.639709,62.464399 93.727224,58.404019 C 93.687089,55.763952 93.967331,52.699796 94.567953,49.211542 C 95.168547,45.723347 96.330258,42.651785 98.053092,39.996845 C 99.77589,37.341984 102.30055,35.944473 105.62707,35.80431 C 108.83626,35.907439 111.36215,37.056806 113.20475,39.252413 C 115.04729,41.4481 116.35097,44.07152 117.11581,47.122681 C 117.88058,50.173905 118.25094,53.03436 118.22691,55.704054 L 118.22691,55.704054 z"
     id="text2403"
     style="font-size:100px;font-style:normal;font-variant:normal;font-weight:normal;font-stretch:normal;fill:#000000;fill-opacity:1;stroke:none;stroke-width:1px;stroke-linecap:butt;stroke-linejoin:miter;stroke-opacity:1;font-family:FreeSerif;-inkscape-font-specification:FreeSerif" />
  <path
     d="M 57.532832,155.51509 L 65.032735,177.41481 L 75.432601,177.41481 L 49.832931,104.51575 L 37.833085,104.51575 L 11.83342,177.41481 L 21.733293,177.41481 L 29.433193,155.51509 L 57.532832,155.51509 z M 54.932865,147.71519 L 31.733164,147.71519 L 43.733009,114.51562 L 54.932865,147.71519 z M 81.730255,151.21515 C 81.749,160.36296 83.686473,167.21703 87.542681,171.77738 C 91.398868,176.33774 97.061289,178.61688 104.52996,178.61479 C 109.44445,178.43771 113.34023,177.4419 116.21731,175.62733 C 119.09431,173.81278 120.56513,172.24196 120.62975,170.91489 C 120.61305,171.09823 120.64638,171.43156 120.72975,171.91488 L 120.72975,172.81487 C 120.74429,174.59193 121.31512,176.01274 122.44223,177.07731 C 123.56925,178.14188 125.16507,178.68771 127.22967,178.71479 C 128.47543,178.71479 129.75875,178.53979 131.07962,178.1898 C 132.40038,177.8398 133.7837,177.31481 135.22957,176.61482 L 133.12959,169.71491 C 132.31288,170.31491 131.54623,170.6149 130.82962,170.6149 C 130.12958,170.59824 129.60459,170.30658 129.25464,169.73991 C 128.90459,169.17326 128.7296,168.4316 128.72965,167.51494 L 128.72965,125.01548 L 121.52974,125.01548 L 121.52974,133.21538 L 120.72975,131.6154 C 117.32976,126.91551 111.92983,124.51554 104.52996,124.41549 C 98.518907,124.56122 93.852305,126.13651 90.530142,129.14136 C 87.207951,132.1463 84.896872,135.70674 83.596895,139.8227 C 82.296906,143.93873 81.674693,147.73621 81.730255,151.21515 L 81.730255,151.21515 z M 119.32977,150.81515 C 119.30473,157.37967 118.00475,162.35043 115.42982,165.72746 C 112.85482,169.10451 109.15487,170.80032 104.32996,170.8149 C 99.188342,170.7024 95.521726,168.87743 93.330106,165.33997 C 91.138453,161.80253 90.071801,157.22759 90.130147,151.61514 C 90.080135,145.81108 91.18012,141.11948 93.430104,137.54032 C 95.680056,133.96124 99.380004,132.1196 104.52996,132.01539 C 109.12779,132.17377 112.7319,134.05708 115.34232,137.66532 C 117.95266,141.27364 119.28181,145.65691 119.32977,150.81515 L 119.32977,150.81515 z"
     id="text2407"
     style="font-size:100px;font-style:normal;font-variant:normal;font-weight:normal;font-stretch:normal;fill:#000000;fill-opacity:1;stroke:none;stroke-width:1px;stroke-linecap:butt;stroke-linejoin:miter;stroke-opacity:1;font-family:FreeSans;-inkscape-font-specification:FreeSans" />
</svg>
