<?xml version="1.0" encoding="UTF-8"?>
<svg id="Layer_1" xmlns="http://www.w3.org/2000/svg" version="1.1" viewBox="0 0 1200 1200">
  <!-- Generator: Adobe Illustrator 29.5.1, SVG Export Plug-In . SVG Version: 2.1.0 Build 141)  -->
  <defs>
    <style>
      .st0 {
        fill: #fff;
      }
    </style>
  </defs>
  <g id="flowRoot2990-2-0">
    <path id="path3089" class="st0" d="M601.27,858.49c-52.05,118.46-131.62,177.69-238.72,177.69-74.79,0-143.44-34.55-205.96-103.65-62.52-69.1-93.78-168.57-93.78-298.4,0-106.49,18.7-193.4,56.09-260.7,37.39-67.31,86.3-118.91,146.73-154.81,60.43-35.9,140.9-53.85,241.41-53.85v33.21c-88.55,0-157.35,36.5-206.41,109.49-49.06,72.99-73.59,176.5-73.59,310.51,0,135.81,16,228.85,48.01,279.1,32.01,50.26,69.85,75.38,113.53,75.38,28.12,0,55.49-8.68,82.12-26.03,26.62-17.35,45.32-35.75,56.09-55.19,10.77-19.44,27.22-59.38,49.36-119.81-37.69-78.97-56.54-162.43-56.54-250.38,0-133.42,27.22-200.13,81.67-200.13,54.44,0,81.67,61.62,81.67,184.87,0,84.96-19.74,173.5-59.23,265.64,43.08,134.02,104.7,201.03,184.87,201.02,44.87,0,83.61-23.48,116.22-70.45,32.61-46.97,48.91-135.66,48.91-266.09,0-108.89-10.62-192.2-31.86-249.93-21.24-57.73-52.8-102.9-94.68-135.51-41.88-32.61-93.03-50.11-153.46-52.5v-33.21c100.51,0,180.98,18.25,241.41,54.74,60.43,36.5,109.19,87.95,146.28,154.36,37.09,66.41,55.64,152.26,55.64,257.56,0,131.62-30.07,231.99-90.19,301.09-60.13,69.1-130.28,103.65-210.45,103.65-110.09,0-188.46-59.23-235.13-177.69h0Z"/>
  </g>
</svg>